<mxfile host="app.diagrams.net" modified="2022-03-11T07:00:04.931Z" agent="5.0 (Macintosh; Intel Mac OS X 10_15_7) AppleWebKit/605.1.15 (KHTML, like Gecko) Version/15.2 Safari/605.1.15" etag="s2r3MX_Kq4Ufyl1Eqrbi" version="17.0.0" type="github">
  <diagram id="q6yRUSRNz8q-C1fMmrtT" name="Page-1">
    <mxGraphModel dx="702" dy="447" grid="1" gridSize="10" guides="1" tooltips="1" connect="1" arrows="1" fold="1" page="1" pageScale="1" pageWidth="827" pageHeight="1169" math="0" shadow="0">
      <root>
        <mxCell id="0" />
        <mxCell id="1" parent="0" />
        <mxCell id="r_xd5Zc-UnmTBXiOUZ6F-1" value="前置广告卡（天马起飞、动态，etc.）" style="rounded=0;whiteSpace=wrap;html=1;" parent="1" vertex="1">
          <mxGeometry x="100" y="100" width="140" height="40" as="geometry" />
        </mxCell>
        <mxCell id="r_xd5Zc-UnmTBXiOUZ6F-2" value="播放详情页" style="rounded=0;whiteSpace=wrap;html=1;" parent="1" vertex="1">
          <mxGeometry x="320" y="100" width="140" height="40" as="geometry" />
        </mxCell>
        <mxCell id="r_xd5Zc-UnmTBXiOUZ6F-3" value="弹幕、浮层、框下、story&lt;br&gt;等广告" style="rounded=0;whiteSpace=wrap;html=1;" parent="1" vertex="1">
          <mxGeometry x="780" y="100" width="160" height="40" as="geometry" />
        </mxCell>
        <mxCell id="r_xd5Zc-UnmTBXiOUZ6F-5" value="广告引擎" style="rounded=0;whiteSpace=wrap;html=1;" parent="1" vertex="1">
          <mxGeometry x="540" y="100" width="160" height="40" as="geometry" />
        </mxCell>
        <mxCell id="r_xd5Zc-UnmTBXiOUZ6F-6" value="" style="endArrow=block;dashed=1;html=1;strokeWidth=1;rounded=0;endFill=0;strokeColor=#121212;startArrow=none;startFill=0;exitX=0.5;exitY=1;exitDx=0;exitDy=0;" parent="1" source="r_xd5Zc-UnmTBXiOUZ6F-7" edge="1">
          <mxGeometry width="50" height="50" relative="1" as="geometry">
            <mxPoint x="50" y="310" as="sourcePoint" />
            <mxPoint x="170" y="360" as="targetPoint" />
          </mxGeometry>
        </mxCell>
        <mxCell id="r_xd5Zc-UnmTBXiOUZ6F-7" value="" style="rounded=0;whiteSpace=wrap;html=1;" parent="1" vertex="1">
          <mxGeometry x="165" y="186" width="10" height="20" as="geometry" />
        </mxCell>
        <mxCell id="r_xd5Zc-UnmTBXiOUZ6F-8" value="" style="endArrow=none;dashed=1;html=1;strokeWidth=1;rounded=0;endFill=0;strokeColor=#121212;startArrow=none;startFill=0;exitX=0.5;exitY=1;exitDx=0;exitDy=0;" parent="1" source="r_xd5Zc-UnmTBXiOUZ6F-1" target="r_xd5Zc-UnmTBXiOUZ6F-7" edge="1">
          <mxGeometry width="50" height="50" relative="1" as="geometry">
            <mxPoint x="170" y="140" as="sourcePoint" />
            <mxPoint x="170" y="600" as="targetPoint" />
          </mxGeometry>
        </mxCell>
        <mxCell id="r_xd5Zc-UnmTBXiOUZ6F-9" value="" style="endArrow=classic;html=1;rounded=0;strokeColor=#121212;strokeWidth=1;" parent="1" edge="1">
          <mxGeometry width="50" height="50" relative="1" as="geometry">
            <mxPoint x="180" y="194" as="sourcePoint" />
            <mxPoint x="380" y="194" as="targetPoint" />
          </mxGeometry>
        </mxCell>
        <mxCell id="r_xd5Zc-UnmTBXiOUZ6F-11" value="点击卡片进入详情页&lt;br&gt;跳转 uri 带 &lt;font color=&quot;#ea6b66&quot;&gt;track_id&lt;/font&gt; 参数" style="edgeLabel;html=1;align=center;verticalAlign=middle;resizable=0;points=[];" parent="r_xd5Zc-UnmTBXiOUZ6F-9" vertex="1" connectable="0">
          <mxGeometry x="0.0441" y="3" relative="1" as="geometry">
            <mxPoint as="offset" />
          </mxGeometry>
        </mxCell>
        <mxCell id="r_xd5Zc-UnmTBXiOUZ6F-10" value="" style="endArrow=block;dashed=1;html=1;strokeWidth=1;rounded=0;endFill=0;strokeColor=#121212;startArrow=none;startFill=0;exitX=0.5;exitY=1;exitDx=0;exitDy=0;" parent="1" source="r_xd5Zc-UnmTBXiOUZ6F-12" edge="1">
          <mxGeometry width="50" height="50" relative="1" as="geometry">
            <mxPoint x="389.65999999999997" y="140.0000000000001" as="sourcePoint" />
            <mxPoint x="390" y="410" as="targetPoint" />
          </mxGeometry>
        </mxCell>
        <mxCell id="r_xd5Zc-UnmTBXiOUZ6F-12" value="" style="rounded=0;whiteSpace=wrap;html=1;" parent="1" vertex="1">
          <mxGeometry x="385" y="180" width="10" height="200" as="geometry" />
        </mxCell>
        <mxCell id="r_xd5Zc-UnmTBXiOUZ6F-13" value="" style="endArrow=none;dashed=1;html=1;strokeWidth=1;rounded=0;endFill=0;strokeColor=#121212;startArrow=none;startFill=0;exitX=0.5;exitY=1;exitDx=0;exitDy=0;" parent="1" source="r_xd5Zc-UnmTBXiOUZ6F-2" target="r_xd5Zc-UnmTBXiOUZ6F-12" edge="1">
          <mxGeometry width="50" height="50" relative="1" as="geometry">
            <mxPoint x="390" y="140" as="sourcePoint" />
            <mxPoint x="390" y="600" as="targetPoint" />
          </mxGeometry>
        </mxCell>
        <mxCell id="r_xd5Zc-UnmTBXiOUZ6F-14" value="" style="endArrow=block;dashed=1;html=1;strokeWidth=1;rounded=0;endFill=0;strokeColor=#121212;startArrow=none;startFill=0;exitX=0.5;exitY=1;exitDx=0;exitDy=0;" parent="1" source="r_xd5Zc-UnmTBXiOUZ6F-17" edge="1">
          <mxGeometry width="50" height="50" relative="1" as="geometry">
            <mxPoint x="619.66" y="180.0000000000001" as="sourcePoint" />
            <mxPoint x="620" y="320" as="targetPoint" />
          </mxGeometry>
        </mxCell>
        <mxCell id="r_xd5Zc-UnmTBXiOUZ6F-15" value="" style="endArrow=classic;html=1;rounded=0;strokeColor=#121212;strokeWidth=1;exitX=1;exitY=0.5;exitDx=0;exitDy=0;" parent="1" edge="1">
          <mxGeometry width="50" height="50" relative="1" as="geometry">
            <mxPoint x="395" y="204.82" as="sourcePoint" />
            <mxPoint x="615" y="205" as="targetPoint" />
          </mxGeometry>
        </mxCell>
        <mxCell id="r_xd5Zc-UnmTBXiOUZ6F-16" value="请求广告数据&lt;br&gt;（view、dm/ad、story/cart）&lt;br&gt;ad_extra 带上&amp;nbsp;&lt;span style=&quot;color: rgb(234 , 107 , 102)&quot;&gt;track_id&lt;/span&gt;&amp;nbsp;参数" style="edgeLabel;html=1;align=center;verticalAlign=middle;resizable=0;points=[];" parent="r_xd5Zc-UnmTBXiOUZ6F-15" vertex="1" connectable="0">
          <mxGeometry x="0.0441" y="3" relative="1" as="geometry">
            <mxPoint as="offset" />
          </mxGeometry>
        </mxCell>
        <mxCell id="r_xd5Zc-UnmTBXiOUZ6F-17" value="" style="rounded=0;whiteSpace=wrap;html=1;" parent="1" vertex="1">
          <mxGeometry x="615" y="192" width="10" height="108" as="geometry" />
        </mxCell>
        <mxCell id="r_xd5Zc-UnmTBXiOUZ6F-18" value="" style="endArrow=none;dashed=1;html=1;strokeWidth=1;rounded=0;endFill=0;strokeColor=#121212;startArrow=none;startFill=0;exitX=0.5;exitY=1;exitDx=0;exitDy=0;" parent="1" source="r_xd5Zc-UnmTBXiOUZ6F-5" target="r_xd5Zc-UnmTBXiOUZ6F-17" edge="1">
          <mxGeometry width="50" height="50" relative="1" as="geometry">
            <mxPoint x="620" y="140" as="sourcePoint" />
            <mxPoint x="620" y="600" as="targetPoint" />
          </mxGeometry>
        </mxCell>
        <mxCell id="r_xd5Zc-UnmTBXiOUZ6F-19" value="" style="endArrow=classic;html=1;rounded=0;strokeColor=#121212;strokeWidth=1;" parent="1" edge="1">
          <mxGeometry width="50" height="50" relative="1" as="geometry">
            <mxPoint x="610" y="280" as="sourcePoint" />
            <mxPoint x="400" y="280" as="targetPoint" />
          </mxGeometry>
        </mxCell>
        <mxCell id="r_xd5Zc-UnmTBXiOUZ6F-20" value="返回广告数据&lt;br&gt;将 trackid 赋值到广告数据的&lt;br&gt;ad_content.extra.&lt;font color=&quot;#67ab9f&quot;&gt;cm_from_track_id&lt;/font&gt; 上" style="edgeLabel;html=1;align=center;verticalAlign=middle;resizable=0;points=[];" parent="r_xd5Zc-UnmTBXiOUZ6F-19" vertex="1" connectable="0">
          <mxGeometry x="0.0441" y="3" relative="1" as="geometry">
            <mxPoint as="offset" />
          </mxGeometry>
        </mxCell>
        <mxCell id="r_xd5Zc-UnmTBXiOUZ6F-21" value="" style="endArrow=block;dashed=1;html=1;strokeWidth=1;rounded=0;endFill=0;strokeColor=#121212;startArrow=none;startFill=0;exitX=0.5;exitY=1;exitDx=0;exitDy=0;" parent="1" source="r_xd5Zc-UnmTBXiOUZ6F-22" edge="1">
          <mxGeometry width="50" height="50" relative="1" as="geometry">
            <mxPoint x="859.6600000000001" y="180.0000000000001" as="sourcePoint" />
            <mxPoint x="860" y="550" as="targetPoint" />
          </mxGeometry>
        </mxCell>
        <mxCell id="r_xd5Zc-UnmTBXiOUZ6F-22" value="" style="rounded=0;whiteSpace=wrap;html=1;" parent="1" vertex="1">
          <mxGeometry x="855" y="350" width="10" height="160" as="geometry" />
        </mxCell>
        <mxCell id="r_xd5Zc-UnmTBXiOUZ6F-23" value="" style="endArrow=none;dashed=1;html=1;strokeWidth=1;rounded=0;endFill=0;strokeColor=#121212;startArrow=none;startFill=0;exitX=0.5;exitY=1;exitDx=0;exitDy=0;" parent="1" source="r_xd5Zc-UnmTBXiOUZ6F-3" target="r_xd5Zc-UnmTBXiOUZ6F-22" edge="1">
          <mxGeometry width="50" height="50" relative="1" as="geometry">
            <mxPoint x="860" y="140" as="sourcePoint" />
            <mxPoint x="860" y="600" as="targetPoint" />
          </mxGeometry>
        </mxCell>
        <mxCell id="r_xd5Zc-UnmTBXiOUZ6F-25" value="" style="endArrow=classic;html=1;rounded=0;strokeColor=#121212;strokeWidth=1;" parent="1" edge="1">
          <mxGeometry width="50" height="50" relative="1" as="geometry">
            <mxPoint x="400" y="359" as="sourcePoint" />
            <mxPoint x="850" y="359" as="targetPoint" />
          </mxGeometry>
        </mxCell>
        <mxCell id="r_xd5Zc-UnmTBXiOUZ6F-26" value="渲染相关广告&lt;br&gt;触发曝光、点击、唤起等转化事件" style="edgeLabel;html=1;align=center;verticalAlign=middle;resizable=0;points=[];" parent="r_xd5Zc-UnmTBXiOUZ6F-25" vertex="1" connectable="0">
          <mxGeometry x="0.0441" y="3" relative="1" as="geometry">
            <mxPoint as="offset" />
          </mxGeometry>
        </mxCell>
        <mxCell id="r_xd5Zc-UnmTBXiOUZ6F-27" value="广告计费" style="rounded=0;whiteSpace=wrap;html=1;" parent="1" vertex="1">
          <mxGeometry x="540" y="430" width="160" height="40" as="geometry" />
        </mxCell>
        <mxCell id="r_xd5Zc-UnmTBXiOUZ6F-28" value="" style="rounded=0;whiteSpace=wrap;html=1;" parent="1" vertex="1">
          <mxGeometry x="615" y="481" width="10" height="109" as="geometry" />
        </mxCell>
        <mxCell id="r_xd5Zc-UnmTBXiOUZ6F-29" value="" style="endArrow=none;dashed=1;html=1;strokeWidth=1;rounded=0;endFill=0;strokeColor=#121212;startArrow=none;startFill=0;exitX=0.5;exitY=1;exitDx=0;exitDy=0;" parent="1" target="r_xd5Zc-UnmTBXiOUZ6F-28" edge="1">
          <mxGeometry width="50" height="50" relative="1" as="geometry">
            <mxPoint x="620" y="471" as="sourcePoint" />
            <mxPoint x="620" y="931" as="targetPoint" />
          </mxGeometry>
        </mxCell>
        <mxCell id="r_xd5Zc-UnmTBXiOUZ6F-30" value="" style="endArrow=classic;html=1;rounded=0;strokeColor=#121212;strokeWidth=1;" parent="1" edge="1">
          <mxGeometry width="50" height="50" relative="1" as="geometry">
            <mxPoint x="850" y="500" as="sourcePoint" />
            <mxPoint x="629" y="500" as="targetPoint" />
          </mxGeometry>
        </mxCell>
        <mxCell id="r_xd5Zc-UnmTBXiOUZ6F-31" value="上报计费和UI事件&lt;br&gt;参数带上&amp;nbsp;&lt;span style=&quot;color: rgb(103 , 171 , 159)&quot;&gt;cm_from_track_id&lt;/span&gt;" style="edgeLabel;html=1;align=center;verticalAlign=middle;resizable=0;points=[];" parent="r_xd5Zc-UnmTBXiOUZ6F-30" vertex="1" connectable="0">
          <mxGeometry x="0.0441" y="3" relative="1" as="geometry">
            <mxPoint as="offset" />
          </mxGeometry>
        </mxCell>
        <mxCell id="r_xd5Zc-UnmTBXiOUZ6F-32" value="①" style="text;html=1;align=center;verticalAlign=middle;resizable=0;points=[];autosize=1;strokeColor=#d6b656;fillColor=#fff2cc;" parent="1" vertex="1">
          <mxGeometry x="270" y="210" width="30" height="20" as="geometry" />
        </mxCell>
        <mxCell id="r_xd5Zc-UnmTBXiOUZ6F-33" value="②" style="text;html=1;align=center;verticalAlign=middle;resizable=0;points=[];autosize=1;strokeColor=#d6b656;fillColor=#fff2cc;" parent="1" vertex="1">
          <mxGeometry x="490" y="224" width="30" height="20" as="geometry" />
        </mxCell>
        <mxCell id="r_xd5Zc-UnmTBXiOUZ6F-34" value="③" style="text;html=1;align=center;verticalAlign=middle;resizable=0;points=[];autosize=1;strokeColor=#d6b656;fillColor=#fff2cc;" parent="1" vertex="1">
          <mxGeometry x="490" y="310" width="30" height="20" as="geometry" />
        </mxCell>
        <mxCell id="r_xd5Zc-UnmTBXiOUZ6F-35" value="④" style="text;html=1;align=center;verticalAlign=middle;resizable=0;points=[];autosize=1;strokeColor=#d6b656;fillColor=#fff2cc;" parent="1" vertex="1">
          <mxGeometry x="611" y="374" width="30" height="20" as="geometry" />
        </mxCell>
        <mxCell id="r_xd5Zc-UnmTBXiOUZ6F-36" value="⑤" style="text;html=1;align=center;verticalAlign=middle;resizable=0;points=[];autosize=1;strokeColor=#d6b656;fillColor=#fff2cc;" parent="1" vertex="1">
          <mxGeometry x="720" y="520" width="30" height="20" as="geometry" />
        </mxCell>
        <mxCell id="r_xd5Zc-UnmTBXiOUZ6F-37" value="数据、产品" style="rounded=0;whiteSpace=wrap;html=1;" parent="1" vertex="1">
          <mxGeometry x="316" y="430" width="160" height="40" as="geometry" />
        </mxCell>
        <mxCell id="r_xd5Zc-UnmTBXiOUZ6F-44" value="" style="endArrow=block;dashed=1;html=1;strokeWidth=1;rounded=0;endFill=0;strokeColor=#121212;startArrow=none;startFill=0;" parent="1" source="r_xd5Zc-UnmTBXiOUZ6F-45" edge="1">
          <mxGeometry width="50" height="50" relative="1" as="geometry">
            <mxPoint x="395" y="470" as="sourcePoint" />
            <mxPoint x="395" y="620" as="targetPoint" />
          </mxGeometry>
        </mxCell>
        <mxCell id="r_xd5Zc-UnmTBXiOUZ6F-45" value="" style="rounded=0;whiteSpace=wrap;html=1;" parent="1" vertex="1">
          <mxGeometry x="391" y="549" width="10" height="36" as="geometry" />
        </mxCell>
        <mxCell id="r_xd5Zc-UnmTBXiOUZ6F-48" value="" style="endArrow=none;dashed=1;html=1;strokeWidth=1;rounded=0;endFill=0;strokeColor=#121212;startArrow=none;startFill=0;" parent="1" target="r_xd5Zc-UnmTBXiOUZ6F-45" edge="1">
          <mxGeometry width="50" height="50" relative="1" as="geometry">
            <mxPoint x="395" y="469.9999999999999" as="sourcePoint" />
            <mxPoint x="395" y="620" as="targetPoint" />
          </mxGeometry>
        </mxCell>
        <mxCell id="r_xd5Zc-UnmTBXiOUZ6F-49" value="" style="endArrow=classic;html=1;rounded=0;strokeColor=#121212;strokeWidth=1;" parent="1" edge="1">
          <mxGeometry width="50" height="50" relative="1" as="geometry">
            <mxPoint x="612" y="570" as="sourcePoint" />
            <mxPoint x="403" y="569.9999999999999" as="targetPoint" />
          </mxGeometry>
        </mxCell>
        <mxCell id="r_xd5Zc-UnmTBXiOUZ6F-50" value="根据&amp;nbsp;&lt;span style=&quot;color: rgb(103 , 171 , 159)&quot;&gt;cm_from_track_id&lt;/span&gt;&lt;br&gt;统计转化数据" style="edgeLabel;html=1;align=center;verticalAlign=middle;resizable=0;points=[];" parent="r_xd5Zc-UnmTBXiOUZ6F-49" vertex="1" connectable="0">
          <mxGeometry x="0.0441" y="3" relative="1" as="geometry">
            <mxPoint as="offset" />
          </mxGeometry>
        </mxCell>
        <mxCell id="r_xd5Zc-UnmTBXiOUZ6F-51" value="⑥" style="text;html=1;align=center;verticalAlign=middle;resizable=0;points=[];autosize=1;strokeColor=#d6b656;fillColor=#fff2cc;" parent="1" vertex="1">
          <mxGeometry x="490" y="590" width="30" height="20" as="geometry" />
        </mxCell>
      </root>
    </mxGraphModel>
  </diagram>
</mxfile>
